<?xml version="1.0" standalone="no"?>
<svg version="1.1" id="Layer_1" xmlns="http://www.w3.org/2000/svg" xmlns:xlink="http://www.w3.org/1999/xlink" x="0px" y="0px" width="595.28px" height="595.28px" viewBox="0 0 595.28 595.28" enable-background="new 0 0 595.28 595.28" xml:space="preserve">
<path id="color_x5F_5" fill="#FFD2BB" d="M478.5,102.655c-0.591,0.435-1.2,0.828-1.768,1.126c-0.989,0.52-1.847,0.768-2.246,0.504
	c-0.401-0.268-0.507-1.17-0.407-2.298c0.002-0.006,0.002-0.011,0.002-0.016c0.02-0.208,0.045-0.425,0.078-0.645
	c0.006-0.045,0.015-0.09,0.02-0.135c0.031-0.189,0.063-0.378,0.102-0.572c0.011-0.052,0.02-0.104,0.032-0.155
	c0.041-0.204,0.089-0.409,0.139-0.615c0.008-0.033,0.015-0.067,0.025-0.101c0.06-0.244,0.128-0.487,0.2-0.727
	c0.002-0.004,0.003-0.008,0.005-0.012c0.067-0.223,0.14-0.44,0.216-0.654c0.023-0.063,0.047-0.125,0.071-0.188
	c0.059-0.153,0.114-0.302,0.176-0.447c0.028-0.069,0.06-0.138,0.088-0.206c0.062-0.139,0.125-0.272,0.19-0.399
	c0.028-0.057,0.057-0.115,0.085-0.17c0.095-0.176,0.189-0.342,0.288-0.49l1.711-2.581c-3.324-0.548-6.778-1.954-8.222-3.652
	l-5.58-6.559c-0.552-0.649-0.976-1.359-1.288-2.095c-0.054,0.09-0.108,0.18-0.17,0.27l-2.884,4.353
	c-0.104,0.157-0.229,0.318-0.365,0.482c-0.039,0.046-0.079,0.093-0.118,0.141c-0.108,0.125-0.223,0.25-0.343,0.376
	c-0.042,0.044-0.084,0.089-0.127,0.133c-0.34,0.343-0.72,0.686-1.125,1.013c-0.025,0.022-0.054,0.043-0.082,0.065
	c-0.188,0.153-0.381,0.3-0.577,0.443c-0.02,0.015-0.04,0.03-0.059,0.044c-0.67,0.485-1.354,0.907-1.978,1.203
	c0,0.001-0.002,0.003-0.005,0.004c-0.851,0.407-1.574,0.582-1.929,0.346c-0.251-0.167-0.382-0.585-0.426-1.147
	c-0.046-0.621,0.023-1.423,0.175-2.271c-1.262-1.407-3.402-1.687-4.994-0.578c-1.307,0.91-1.496,4.498-0.945,5.287l2.3,3.302
	l-0.414,0.688c-2.155,3.568-2.531,8.138-1.236,12.17L443.671,111c0,0.001,0,0.002,0.001,0.004l-7.436,7.576
	c0.506,6.469,4.632,12.195,10.924,14.174c3.474,1.093,7.058,0.867,10.272-0.403c0.069-0.027,0.14-0.048,0.209-0.076l3.289-10.458
	l1.127-4.323c4.969-0.732,8.945-4.224,10.658-7.063l0.537-0.891l3.414,0.426c2.08,0.258,3.979-1.219,4.238-3.301
	C481.126,104.898,480.091,103.266,478.5,102.655z M456.948,93.371c0.505-0.886,1.352-1.35,1.895-1.032
	c0.541,0.317,0.572,1.296,0.063,2.183c-0.507,0.884-1.354,1.349-1.896,1.031C456.472,95.235,456.438,94.258,456.948,93.371z
	 M470.588,101.606c-0.55,0.863-1.431,1.288-1.961,0.961c-0.534-0.332-0.518-1.298,0.029-2.159c0.548-0.863,1.429-1.292,1.96-0.962
	C471.151,99.781,471.136,100.747,470.588,101.606z M223.896,262.629c-0.003-0.129,0.001-0.271,0.006-0.414
	c0.194-5.641,6.714-22.085,6.714-22.085s0.499,1.744,1.24,4.372c1.069,3.795,2.645,9.443,3.976,14.458
	c1.342,5.055,2.427,9.436,2.488,10.595c0,0.005,0.001,0.01,0.001,0.015c0.002,0.002,0.004,0.003,0.006,0.005
	c0.068,0.064,0.133,0.137,0.192,0.218c0.177,0.242,0.283,0.548,0.167,0.859c-0.034,0.091-0.081,0.182-0.157,0.272
	c-0.332,0.387-0.797,0.691-1.355,0.913C233.131,273.443,224.112,270.666,223.896,262.629z M189.518,264.14
	c0.286-0.555,0.484-1.088,0.551-1.526c0.289-1.961-2.08-1.344-4.4-1.686c-0.339-0.05-0.673-0.062-0.999-0.046
	c-0.153-0.115-0.306-0.229-0.458-0.35c-2.112-1.657-4.44-2.781-6.795-3.411l-0.065,0.084c-0.445,0.568-5.786,7.845-5.018,7.291
	c4.059,0.973,7.269,3.165,8.723,6.084c-1.179-0.35-2.422-0.432-3.593-0.12c-2.235,0.591-4.176,2.812-3.785,5.242
	c0.186,1.134,0.893,1.945,1.828,2.394c0.558,0.268,1.197,0.407,1.855,0.408c0.501,0.003,0.988-0.061,1.456-0.176
	c0.251-0.062,0.499-0.134,0.737-0.229c0.653-0.252,1.257-0.616,1.783-1.073c-0.252,0.666-0.596,1.311-1.009,1.936
	c-0.246,0.374-0.511,0.741-0.811,1.097c-1.495,1.795-3.642,3.333-6.223,4.414c-0.027,0.017-0.051,0.027-0.078,0.034
	c-0.003,0.001-0.005,0.003-0.007,0.003c-1.221,0.509-2.541,0.92-3.928,1.204c-0.544,0.109-1.101,0.195-1.663,0.271l-7.234,7.234
	l5.054-0.452c0.395-0.086,0.838-0.17,1.322-0.251c3.706-0.617,9.918-1.061,16.804-1.377l1.899-9.333
	c2.819-1.214,5.423-2.725,7.453-4.292c1.205-0.93,2.21-1.88,2.932-2.8C199.465,270.102,195.015,267.565,189.518,264.14z
	 M181.16,263.193c0.303-0.397,1.082-0.328,1.735,0.163c0.651,0.488,0.937,1.203,0.63,1.604c-0.302,0.394-1.081,0.326-1.734-0.163
	C181.139,264.311,180.854,263.594,181.16,263.193z M280.178,254.589c0.054,2.511-7.085,7.646-7.085,7.646s-2.539,2.901-5.127,3.503
	c-2.63,9.088-11.402,22.539-19.069,31.253c-3.318,3.771-6.428,6.658-8.741,7.915c-0.498,0.27-1.105,0.361-1.771,0.303
	c-4.266-0.365-10.999-7.008-7.698-14.203c0.053-0.114,0.122-0.241,0.192-0.369c1.395-2.523,6.181-7.469,10.693-11.85
	c4.664-4.528,9.028-8.447,9.028-8.447s6.615-7.006,11.817-10.589c-1.657-7.598,2.497-17.197,6.472-17.574
	C270.81,241.993,280.079,250.177,280.178,254.589z M394.935,121.314c0,0.322-0.022,0.639-0.049,0.954
	c-0.288,3.465-2.126,6.486-4.822,8.371c-1.845,1.289-4.084,2.051-6.505,2.051c-4.901,0-9.067-3.106-10.667-7.453
	c-0.451-1.225-0.709-2.542-0.709-3.923c0-0.644,0.066-1.271,0.168-1.886c0.215-1.282,0.634-2.494,1.239-3.592
	c1.935-3.515,5.673-5.898,9.969-5.898c2.708,0,5.191,0.95,7.146,2.53C393.282,114.553,394.935,117.739,394.935,121.314z
	 M472.67,178.194c0,1.175-0.179,2.308-0.509,3.375c-1.439,4.635-5.76,8.001-10.867,8.001c-0.09,0-0.177-0.011-0.267-0.014
	c-5.323-0.124-9.739-3.896-10.839-8.92c-0.173-0.787-0.271-1.604-0.271-2.442c0-2.535,0.839-4.868,2.24-6.759
	c2.073-2.797,5.389-4.617,9.136-4.617C467.576,166.818,472.67,171.911,472.67,178.194z"></path>
<path id="color_x5F_2" fill="#f7931e" d="M456.948,93.371c0.505-0.886,1.352-1.35,1.895-1.032c0.541,0.317,0.572,1.296,0.063,2.183
	c-0.507,0.884-1.354,1.349-1.896,1.031C456.472,95.235,456.438,94.258,456.948,93.371z M468.627,102.568
	c0.53,0.327,1.411-0.098,1.961-0.961c0.548-0.86,0.563-1.826,0.028-2.16c-0.531-0.33-1.412,0.099-1.96,0.962
	C468.109,101.27,468.093,102.236,468.627,102.568z M181.792,264.796c0.653,0.489,1.432,0.557,1.734,0.163
	c0.307-0.4,0.021-1.115-0.63-1.604c-0.653-0.49-1.432-0.56-1.735-0.163C180.854,263.594,181.139,264.311,181.792,264.796z
	 M348.677,472.842c-0.107-0.019-0.216-0.033-0.328-0.033c-1.047,0-1.896,0.849-1.896,1.896v5.688c0,1.048,0.849,1.896,1.896,1.896
	c1.048,0,1.896-0.849,1.896-1.896v-5.688c0-0.14-0.018-0.275-0.047-0.407c-0.176,0.265-0.272,0.407-0.272,0.407
	S349.489,474.059,348.677,472.842z M354.037,492.929h-3.792v-3.792c0-1.047-0.849-1.896-1.896-1.896
	c-1.047,0-1.896,0.849-1.896,1.896v5.688c0,1.047,0.849,1.896,1.896,1.896h5.688c1.047,0,1.896-0.849,1.896-1.896
	C355.933,493.777,355.084,492.929,354.037,492.929z M288.004,410.453h-11.393c-1.047,0-1.896,0.849-1.896,1.896
	c0,1.048,0.849,1.896,1.896,1.896h11.393c1.047,0,1.896-0.849,1.896-1.896C289.9,411.302,289.051,410.453,288.004,410.453z
	 M265.219,410.453h-11.394c-1.047,0-1.896,0.849-1.896,1.896c0,1.048,0.849,1.896,1.896,1.896h11.394
	c1.047,0,1.896-0.849,1.896-1.896C267.114,411.302,266.266,410.453,265.219,410.453z M376.822,492.929H365.43
	c-1.047,0-1.896,0.849-1.896,1.896c0,1.047,0.849,1.896,1.896,1.896h11.393c1.047,0,1.896-0.849,1.896-1.896
	C378.718,493.777,377.869,492.929,376.822,492.929z M223.927,398.538c-2.998-2.38-5.639-4.958-7.847-7.663
	c-0.662-0.813-1.857-0.932-2.668-0.271c-0.812,0.663-0.932,1.857-0.27,2.668c2.38,2.916,5.216,5.688,8.427,8.235
	c0.349,0.277,0.764,0.411,1.177,0.411c0.559,0,1.112-0.245,1.486-0.717C224.885,400.382,224.747,399.189,223.927,398.538z
	 M243.726,326.081h-4.123c-0.01,0-0.02,0-0.03,0c-2.735,0-5.199,0.153-7.532,0.467c-1.038,0.14-1.766,1.094-1.626,2.132
	c0.128,0.953,0.941,1.644,1.877,1.644c0.084,0,0.169-0.006,0.255-0.017c2.164-0.292,4.463-0.434,7.028-0.434
	c0.009,0,0.019,0,0.028,0h4.124c1.047,0,1.896-0.849,1.896-1.896S244.773,326.081,243.726,326.081z M214.232,340.015
	c2.159-2.798,4.869-5.041,8.054-6.666c0.933-0.476,1.304-1.617,0.828-2.551c-0.476-0.932-1.619-1.304-2.551-0.826
	c-3.688,1.881-6.829,4.48-9.333,7.727c-0.641,0.828-0.487,2.019,0.342,2.658c0.346,0.267,0.753,0.396,1.157,0.396
	C213.297,340.752,213.858,340.498,214.232,340.015z M255.181,326.081c-1.047,0-1.896,0.85-1.896,1.896s0.849,1.896,1.896,1.896
	h9.117c-0.635-1.266-1.265-2.53-1.889-3.792H255.181z M299.397,410.453c-1.047,0-1.896,0.849-1.896,1.896
	c0,1.048,0.849,1.896,1.896,1.896h11.393c0.226,0,0.439-0.047,0.64-0.119c-0.735-1.213-1.477-2.438-2.222-3.673H299.397z
	 M502.475,315.271c-0.814,0.657-0.941,1.852-0.283,2.666c0.374,0.464,0.923,0.704,1.476,0.704c0.418,0,0.84-0.138,1.19-0.421
	c3.242-2.617,6.036-5.449,8.306-8.416c0.636-0.831,0.478-2.021-0.355-2.657c-0.828-0.633-2.021-0.479-2.657,0.354
	C508.064,310.228,505.482,312.841,502.475,315.271z M399.608,492.929h-11.393c-1.047,0-1.896,0.849-1.896,1.896
	c0,1.047,0.849,1.896,1.896,1.896h11.393c1.047,0,1.896-0.849,1.896-1.896C401.505,493.777,400.655,492.929,399.608,492.929z
	 M390.577,414.245h11.43c1.048,0,1.896-0.849,1.896-1.896c0-1.047-0.849-1.896-1.896-1.896h-11.364
	c-0.571,0.948-1.141,1.893-1.707,2.826C389.261,413.854,389.87,414.245,390.577,414.245z M422.395,492.929h-11.394
	c-1.047,0-1.896,0.849-1.896,1.896c0,1.047,0.849,1.896,1.896,1.896h11.394c1.048,0,1.896-0.849,1.896-1.896
	C424.291,493.777,423.442,492.929,422.395,492.929z M447.669,410.453h-11.412c-1.047,0-1.896,0.849-1.896,1.896
	c0,1.048,0.85,1.896,1.896,1.896h11.412c1.048,0,1.896-0.849,1.896-1.896C449.565,411.302,448.717,410.453,447.669,410.453z
	 M424.843,410.453h-11.416c-1.047,0-1.896,0.849-1.896,1.896c0,1.048,0.85,1.896,1.896,1.896h11.416
	c1.047,0,1.896-0.849,1.896-1.896C426.738,411.302,425.89,410.453,424.843,410.453z M445.18,492.929h-11.393
	c-1.047,0-1.896,0.849-1.896,1.896c0,1.047,0.849,1.896,1.896,1.896h11.393c1.048,0,1.896-0.849,1.896-1.896
	C447.076,493.777,446.228,492.929,445.18,492.929z M243.279,409.307c-2.37-0.886-6.047-2.413-10.111-4.656
	c-0.918-0.505-2.071-0.173-2.576,0.743c-0.506,0.917-0.173,2.07,0.743,2.576c4.265,2.354,8.127,3.958,10.615,4.889
	c0.219,0.082,0.443,0.121,0.664,0.121c0.769,0,1.491-0.472,1.776-1.233C244.757,410.766,244.259,409.674,243.279,409.307z
	 M467.966,492.929h-11.393c-1.047,0-1.896,0.849-1.896,1.896c0,1.047,0.849,1.896,1.896,1.896h11.393
	c1.047,0,1.896-0.849,1.896-1.896C469.862,493.777,469.013,492.929,467.966,492.929z M470.499,410.453h-11.414
	c-1.047,0-1.896,0.849-1.896,1.896c0,1.048,0.849,1.896,1.896,1.896h11.414c1.047,0,1.896-0.849,1.896-1.896
	C472.396,411.302,471.546,410.453,470.499,410.453z M487.423,247.197c0.127,0.025,0.253,0.038,0.378,0.038
	c0.884,0,1.675-0.621,1.856-1.52c0.208-1.026-0.455-2.027-1.482-2.235c-2.693-0.545-5.477-0.822-8.271-0.823h-3.443
	c-1.047,0-1.896,0.849-1.896,1.896c0,1.047,0.849,1.896,1.896,1.896h3.443C482.445,246.45,484.976,246.701,487.423,247.197z
	 M490.753,492.929h-11.395c-1.047,0-1.896,0.849-1.896,1.896c0,1.047,0.849,1.896,1.896,1.896h11.395
	c1.047,0,1.896-0.849,1.896-1.896C492.648,493.777,491.8,492.929,490.753,492.929z M205.582,362.021c0.977,0,1.806-0.75,1.888-1.74
	c0.326-3.958,0.992-7.577,1.981-10.761c0.311-0.999-0.248-2.063-1.248-2.373c-1-0.312-2.063,0.248-2.373,1.248
	c-1.071,3.447-1.791,7.341-2.139,11.575c-0.086,1.044,0.69,1.96,1.734,2.045C205.478,362.02,205.53,362.021,205.582,362.021z
	 M472.317,326.081H460.87c-1.047,0-1.896,0.85-1.896,1.896s0.85,1.896,1.896,1.896h11.447c1.047,0,1.896-0.849,1.896-1.896
	S473.364,326.081,472.317,326.081z M540.005,458.787c-1.03-0.054-1.938,0.747-1.994,1.792c-0.205,3.84-0.858,7.423-1.943,10.648
	c-0.334,0.992,0.2,2.067,1.192,2.401c0.201,0.067,0.404,0.101,0.604,0.101c0.792,0,1.53-0.5,1.797-1.293
	c1.195-3.551,1.914-7.473,2.136-11.655C541.853,459.735,541.05,458.843,540.005,458.787z M449.429,326.081h-11.434
	c-0.213,0-0.415,0.044-0.606,0.108c-0.393,0.794-0.787,1.589-1.185,2.384c0.252,0.754,0.953,1.3,1.791,1.3h11.434
	c1.047,0,1.896-0.849,1.896-1.896S450.476,326.081,449.429,326.081z M515.761,276.609c0.19,0.89,0.978,1.5,1.853,1.5
	c0.131,0,0.265-0.014,0.398-0.042c1.024-0.22,1.676-1.228,1.458-2.251c-0.855-3.992-2.156-7.754-3.867-11.183
	c-0.467-0.938-1.607-1.319-2.543-0.851c-0.937,0.467-1.318,1.606-0.851,2.543C513.777,269.469,514.973,272.929,515.761,276.609z
	 M206.908,383.181c0.313,0.71,1.007,1.133,1.736,1.133c0.255,0,0.514-0.052,0.763-0.161c0.958-0.422,1.394-1.54,0.972-2.499
	c-1.449-3.293-2.408-6.792-2.853-10.397c-0.128-1.04-1.079-1.774-2.114-1.651c-1.039,0.129-1.778,1.075-1.65,2.114
	C204.252,375.691,205.311,379.548,206.908,383.181z M527.33,417.573c-0.847-0.616-2.033-0.432-2.649,0.415
	c-0.617,0.846-0.432,2.032,0.414,2.649c2.842,2.071,5.136,4.637,7.014,7.84c0.353,0.602,0.986,0.938,1.637,0.938
	c0.326,0,0.656-0.084,0.958-0.261c0.902-0.529,1.206-1.691,0.677-2.595C533.263,422.949,530.555,419.926,527.33,417.573z
	 M537.767,449.453c0.08,0.992,0.91,1.745,1.889,1.745c0.051,0,0.102-0.002,0.153-0.006c1.043-0.083,1.821-0.996,1.739-2.041
	c-0.336-4.21-0.944-8.094-1.807-11.543c-0.255-1.018-1.286-1.629-2.3-1.38c-1.016,0.255-1.634,1.284-1.38,2.3
	C536.875,441.774,537.448,445.45,537.767,449.453z M518.822,285.62c-0.006,0-0.012,0-0.017,0c-1.047,0.009-1.889,0.865-1.88,1.912
	l0.003,0.629c0.001,3.415-0.552,6.751-1.643,9.917c-0.342,0.989,0.186,2.069,1.175,2.41c0.205,0.07,0.413,0.104,0.618,0.104
	c0.787,0,1.521-0.494,1.792-1.279c1.229-3.565,1.851-7.318,1.85-11.153l-0.003-0.661C520.709,286.458,519.861,285.62,518.822,285.62
	z M516.48,412.467c-3.461-0.97-7.262-1.574-11.616-1.848c-1.058-0.071-1.946,0.729-2.012,1.772
	c-0.066,1.045,0.729,1.946,1.772,2.012c4.087,0.258,7.63,0.817,10.834,1.715c0.17,0.048,0.343,0.071,0.512,0.071
	c0.828,0,1.591-0.549,1.825-1.386C518.077,413.795,517.489,412.749,516.48,412.467z M533.663,480.304
	c-0.818-0.656-2.01-0.524-2.666,0.293c-2.189,2.729-4.899,5.087-8.055,7.006c-0.895,0.545-1.178,1.711-0.633,2.606
	c0.356,0.586,0.981,0.91,1.621,0.91c0.336,0,0.676-0.089,0.984-0.276c3.531-2.15,6.573-4.799,9.041-7.873
	C534.61,482.151,534.479,480.958,533.663,480.304z M493.337,410.453h-11.423c-1.047,0-1.896,0.849-1.896,1.896
	c0,1.048,0.849,1.896,1.896,1.896h11.423c1.047,0,1.896-0.849,1.896-1.896C495.233,411.302,494.384,410.453,493.337,410.453z
	 M512.965,491.817c-3.291,0.884-5.696,1.086-6.05,1.111h-4.77c-1.048,0-1.896,0.849-1.896,1.896c0,1.047,0.849,1.896,1.896,1.896
	h4.834c0.036,0,0.072-0.001,0.108-0.003c0.116-0.008,2.904-0.177,6.86-1.238c1.012-0.271,1.61-1.313,1.339-2.323
	C515.015,492.146,513.981,491.542,512.965,491.817z M493.271,321.411c-4.73,2.615-8.639,4.091-10.1,4.604
	c-0.988,0.346-1.508,1.429-1.16,2.416c0.273,0.78,1.006,1.27,1.788,1.27c0.208,0,0.421-0.035,0.628-0.108
	c1.552-0.544,5.697-2.108,10.679-4.863c0.917-0.506,1.249-1.66,0.741-2.576C495.342,321.235,494.188,320.904,493.271,321.411z
	 M507.431,258.058c0.468,0,0.937-0.171,1.303-0.518c0.762-0.719,0.795-1.919,0.076-2.68c-2.755-2.916-5.931-5.371-9.438-7.298
	c-0.919-0.506-2.069-0.169-2.574,0.749c-0.505,0.917-0.169,2.071,0.749,2.575c3.161,1.737,6.023,3.95,8.507,6.578
	C506.426,257.859,506.929,258.058,507.431,258.058z M478.462,155.647c-1.131-3.785-6.295-10.149-11.229-15.417
	c-1.949-2.088-3.861-3.993-5.479-5.507c0,0-3.137-1.698-4.322-2.373c-3.215,1.27-6.799,1.496-10.272,0.403
	c-6.292-1.979-10.418-7.705-10.924-14.174c-2.945-1.782-30.562-10.72-44.085-6.593c-0.365,0.111-0.863,0.278-1.447,0.481
	c2.578,2.085,4.23,5.271,4.23,8.846c0,0.322-0.022,0.639-0.049,0.954c23.996,9.788,44.082,27.171,57.272,49.167
	c2.073-2.797,5.389-4.617,9.136-4.617c6.282,0,11.376,5.093,11.376,11.376c0,1.175-0.179,2.308-0.509,3.375
	C475.017,176.549,481.078,164.393,478.462,155.647z M208.513,434.702c0.541-3.513,0.407-6.83-0.249-9.528
	c-0.353-9.673-20.357-34.779-30.218-45.274c-4.169-0.243-8.279-0.704-12.321-1.369c-5.162-0.85-10.211-2.034-15.124-3.533
	c-3.643-1.111-7.209-2.397-10.69-3.846c-1.934,1.446-3.666,3.288-5.062,5.488c-4.251,6.705-16.735,34.627-18.882,49.655
	c-6.489-0.34-14.607,0.427-19.006,1.971c-7.795,2.735-31.14,17.458-29.743,21.44c1.398,3.982,39.022-5.593,46.817-8.328
	c4.861-1.706,8.707-4.467,10.575-7.271c8.885-5.059,22.471-19.301,31.18-29.636c8.748,6.426,27.122,17.943,39.634,22.605
	c-3.086,5.411-5.858,12.228-6.518,16.518c-1.172,7.616,0.49,32.067,4.104,35.845l-4.227,16.91h25.594l-20.526-16.421
	C198.037,480.393,207.261,442.85,208.513,434.702z M58.971,475.833l8.083-26.091l-17.44,2.269L58.971,475.833z"></path>
<path id="color_x5F_1" fill="#2756ff" d="M485.299,91.848c0.108,1.027-0.315,2.465-1.22,3.833l-2.887,4.353
	c-0.562,0.843-1.593,1.81-2.692,2.622c-0.591,0.435-1.2,0.828-1.768,1.126c-0.989,0.52-1.847,0.768-2.246,0.504
	c-0.401-0.268-0.507-1.17-0.407-2.298c0.002-0.006,0.002-0.011,0.002-0.016c0.02-0.208,0.045-0.425,0.078-0.645
	c0.006-0.045,0.015-0.09,0.02-0.135c0.031-0.189,0.063-0.378,0.102-0.572c0.011-0.052,0.02-0.104,0.032-0.155
	c0.041-0.204,0.089-0.409,0.139-0.615c0.008-0.033,0.015-0.067,0.025-0.101c0.06-0.244,0.128-0.487,0.2-0.727
	c0.002-0.004,0.003-0.008,0.005-0.012c0.067-0.223,0.14-0.44,0.216-0.654c0.023-0.063,0.047-0.125,0.071-0.188
	c0.059-0.153,0.114-0.302,0.176-0.447c0.028-0.069,0.06-0.138,0.088-0.206c0.062-0.139,0.125-0.272,0.19-0.399
	c0.028-0.057,0.057-0.115,0.085-0.17c0.095-0.176,0.189-0.342,0.288-0.49l1.711-2.581c-3.324-0.548-6.778-1.954-8.222-3.652
	l-5.58-6.559c-0.552-0.649-0.976-1.359-1.288-2.095c-0.054,0.09-0.108,0.18-0.17,0.27l-2.884,4.353
	c-0.104,0.157-0.229,0.318-0.365,0.482c-0.039,0.046-0.079,0.093-0.118,0.141c-0.108,0.125-0.223,0.25-0.343,0.376
	c-0.042,0.044-0.084,0.089-0.127,0.133c-0.34,0.343-0.72,0.686-1.125,1.013c-0.025,0.022-0.054,0.043-0.082,0.065
	c-0.188,0.153-0.381,0.3-0.577,0.443c-0.02,0.015-0.04,0.03-0.059,0.044c-0.67,0.485-1.354,0.907-1.978,1.203
	c0,0.001-0.002,0.003-0.005,0.004c-0.851,0.407-1.574,0.582-1.929,0.346c-0.251-0.167-0.382-0.585-0.426-1.147
	c-0.046-0.621,0.023-1.423,0.175-2.271c0.287-1.603,0.873-3.371,1.562-4.41l2.887-4.352c1.384-2.086,3.357-3.21,4.41-2.511
	l0.906,0.6c0,0.004-0.001,0.007-0.003,0.011c0.005-0.002,0.008-0.004,0.012-0.005l-0.009-0.006c0.364-1.066,0.998-2.036,1.897-2.799
	l4.319-3.674c2.872-2.442,7.368-1.877,10.042,1.266l5.578,6.558C486.35,80.456,487.087,88.304,485.299,91.848z M461.027,189.556
	c5.179,13.354,8.024,27.87,8.024,43.052c0,22.251-13.627,57.144-31.663,93.581c-0.393,0.794-0.787,1.589-1.185,2.384
	c-14.092,28.226-30.698,57.228-45.562,81.88c-0.571,0.948-1.141,1.893-1.707,2.826c-19.993,33.015-36.461,57.634-38.737,61.019
	c-0.176,0.265-0.272,0.407-0.272,0.407s-0.437-0.646-1.249-1.863c-4.311-6.455-19.315-29.144-37.247-58.716
	c-0.735-1.213-1.477-2.438-2.222-3.673c-14.635-24.275-30.959-52.766-44.91-80.58c-0.635-1.266-1.265-2.53-1.889-3.792
	c-4.891-9.885-9.456-19.655-13.512-29.09c7.667-8.715,16.438-22.165,19.069-31.253c2.588-0.602,5.127-3.503,5.127-3.503
	s7.139-5.135,7.085-7.646c-0.099-4.412-9.368-12.597-11.287-12.413c-3.976,0.377-8.129,9.977-6.472,17.574
	c-5.202,3.583-11.817,10.589-11.817,10.589s-4.364,3.919-9.028,8.447c-1.024-2.76-1.99-5.474-2.888-8.135
	c0.117-0.311,0.011-0.617-0.167-0.859c-0.06-0.082-0.125-0.154-0.192-0.218c-0.002-0.001-0.004-0.003-0.006-0.005
	c0-0.005,0-0.01-0.001-0.015c-0.061-1.159-1.146-5.54-2.488-10.595c-1.331-5.016-2.906-10.663-3.976-14.458
	c-0.689-4.27-1.056-8.252-1.056-11.894c0-65.792,53.335-119.126,119.126-119.126c8.103,0,16.015,0.813,23.664,2.354
	c-0.605,1.099-1.024,2.311-1.239,3.592c-0.102,0.615-0.168,1.242-0.168,1.886c0,1.381,0.258,2.699,0.709,3.923
	c1.6,4.347,5.766,7.453,10.667,7.453c2.421,0,4.66-0.762,6.505-2.051c2.696-1.885,4.534-4.906,4.822-8.371
	c23.996,9.788,44.082,27.171,57.272,49.167c-1.401,1.891-2.24,4.224-2.24,6.759c0,0.839,0.098,1.655,0.271,2.442
	C451.288,185.66,455.704,189.433,461.027,189.556z M408.233,231.52c0-8.511-1.839-16.588-5.117-23.878
	c-5.172-11.504-13.957-21.026-24.92-27.118c-8.375-4.653-18.01-7.312-28.271-7.312c-32.202,0-58.308,26.106-58.308,58.308
	s26.105,58.308,58.308,58.308S408.233,263.722,408.233,231.52z M230.688,291.006c0.053-0.114,0.122-0.241,0.192-0.369
	c-6.072-0.466-11.624-0.297-11.624-0.297s-1.289,0.004-3.468,0.021c8.665-5.568,16.878-12.269,21.384-18.525
	c-4.041,1.606-13.06-1.171-13.277-9.208c-0.003-0.129,0.001-0.271,0.006-0.414c-5.653,2.261-10.558,4.861-10.558,4.861
	s-9.687,4.8-20.428,10.438c-2.03,1.567-4.634,3.077-7.453,4.292l-1.899,9.333c-6.886,0.317-13.098,0.761-16.804,1.377
	c-0.484,0.081-0.928,0.165-1.322,0.251l-5.054,0.452l-0.008,0l-0.764,0.063c0,0-25.271,29.496-20.221,61.49
	c0.872,5.569,0.291,10.919-1,15.742c0.504,0.218,1.012,0.427,1.52,0.637c3.481,1.448,7.048,2.734,10.69,3.846
	c4.913,1.499,9.962,2.684,15.124,3.533c4.042,0.665,8.152,1.126,12.321,1.369c0.093,0.006,0.186,0.013,0.279,0.019l0.755-0.174
	c0,0-6.387-3.543-3.89-14.207c1.845-7.876,5.823-18.268,9.157-28.151c0.245-0.045,0.491-0.091,0.736-0.146
	c7.486-1.853,12.264-8.53,10.692-14.906c-0.799-3.198-3.034-5.723-6.013-7.204c0.026-0.781,0.018-1.525-0.037-2.226
	c0-0.001,0-0.002-0.001-0.003c14.014,1.138,36.678-1.39,48.66-7.692C234.119,304.844,227.387,298.201,230.688,291.006z
	 M150.307,264.92c0.212-0.052,0.416-0.119,0.619-0.187c-4.954,9.694,0.574,15.358,5.014,18.354
	c3.762,2.537,9.208,3.207,11.512,2.925c0.057-0.007,0.109-0.02,0.166-0.027c0.562-0.075,1.119-0.161,1.663-0.271
	c1.388-0.283,2.707-0.694,3.928-1.204c0.002,0,0.004-0.002,0.007-0.003c0.027-0.007,0.051-0.017,0.078-0.034
	c2.581-1.081,4.728-2.619,6.223-4.414c0.3-0.355,0.565-0.723,0.811-1.097c0.413-0.625,0.757-1.271,1.009-1.936
	c-0.526,0.457-1.13,0.821-1.783,1.073c-0.238,0.094-0.485,0.167-0.737,0.229c-0.467,0.115-0.954,0.179-1.456,0.176
	c-0.658-0.001-1.297-0.14-1.855-0.408c-0.936-0.449-1.643-1.259-1.828-2.394c-0.392-2.43,1.55-4.651,3.785-5.242
	c1.171-0.312,2.415-0.229,3.593,0.12c-1.454-2.919-4.664-5.111-8.723-6.084c-0.769,0.554,4.572-6.723,5.018-7.291l0.065-0.084
	l0.004-0.004c3.017-3.948,2.258-9.625-1.717-12.744c-4.002-3.14-9.76-2.492-12.856,1.456c-2.29,2.919-2.151,6.739-4.847,10.209
	c-0.621,0.791-1.106,1.39-1.499,1.849c-0.008,0.009-0.015,0.017-0.022,0.026c0.112-0.953,0.067-1.94-0.177-2.927
	c-1.088-4.397-5.535-7.081-9.934-5.993c-4.396,1.087-7.081,5.535-5.993,9.933C141.462,263.324,145.909,266.007,150.307,264.92z
	 M352.078,206.832c-16.259,0-30.149,5.976-39.114,16.826c-1.834,2.22-1.521,5.506,0.699,7.34c0.972,0.803,2.148,1.194,3.318,1.194
	c1.501,0,2.99-0.645,4.021-1.893c8.904-10.777,21.813-13.04,31.075-13.04c13.121,0,23.479,8.399,28.486,13.406
	c2.035,2.036,5.338,2.036,7.373,0c2.036-2.037,2.036-5.338,0-7.374C381.79,217.145,368.957,206.832,352.078,206.832z
	 M351.347,226.206c-8.922,0-16.58,3.324-21.564,9.36c-1.834,2.22-1.521,5.507,0.698,7.34c0.972,0.803,2.149,1.194,3.318,1.194
	c1.501,0,2.992-0.645,4.022-1.894c3.805-4.605,9.455-5.573,13.525-5.573c5.622,0,10.182,3.721,12.399,5.939
	c2.035,2.036,5.336,2.037,7.374,0.001c2.036-2.036,2.036-5.337,0-7.374C365.321,229.4,358.3,226.206,351.347,226.206z
	 M350.617,247.594c-3.532,0-6.399,2.865-6.399,6.399c0,3.534,2.867,6.398,6.399,6.398c3.534,0,6.399-2.865,6.399-6.398
	C357.017,250.458,354.151,247.594,350.617,247.594z"></path>
</svg>